<svg width="32" height="32" viewBox="0 0 98 62" fill="none" xmlns="http://www.w3.org/2000/svg">
  <rect width="98" height="62" fill="#080808"/>
  <mask id="path-1-outside-1_2_2" maskUnits="userSpaceOnUse" x="0" y="0" width="98" height="62" fill="black">
    <rect fill="white" width="98" height="62"/>
    <path d="M43 7V19H31V7H43ZM31 43V31H43V55H7V43H31ZM91 7V19H79V31H67V43H91V55H55V7H91Z"/>
  </mask>
  <path d="M43 7V19H31V7H43ZM31 43V31H43V55H7V43H31ZM91 7V19H79V31H67V43H91V55H55V7H91Z" fill="#00ff41"/>
  <path d="M43 7H50V0H43V7ZM43 19V26H50V19H43ZM31 19H24V26H31V19ZM31 7V0H24V7H31ZM31 43V50H38V43H31ZM31 31V24H24V31H31ZM43 31H50V24H43V31ZM43 55V62H50V55H43ZM7 55H0V62H7V55ZM7 43V36H0V43H7ZM43 7H36V19H43H50V7H43ZM43 19V12H31V19V26H43V19ZM31 19H38V7H31H24V19H31ZM31 7V14H43V7V0H31V7ZM31 43H38V31H31H24V43H31ZM31 31V38H43V31V24H31V31ZM43 31H36V55H43H50V31H43ZM43 55V48H7V55V62H43V55ZM7 55H14V43H7H0V55H7ZM7 43V50H31V43V36H7V43ZM91 7H98V0H91V7ZM91 19V26H98V19H91ZM79 19V12H72V19H79ZM79 31V38H86V31H79ZM67 31V24H60V31H67ZM67 43H60V50H67V43ZM91 43H98V36H91V43ZM91 55V62H98V55H91ZM55 55H48V62H55V55ZM55 7V0H48V7H55ZM91 7H84V19H91H98V7H91ZM91 19V12H79V19V26H91V19ZM79 19H72V31H79H86V19H79ZM79 31V24H67V31V38H79V31ZM67 31H60V43H67H74V31H67ZM67 43V50H91V43V36H67V43ZM91 43H84V55H91H98V43H91ZM91 55V48H55V55V62H91V55ZM55 55H62V7H55H48V55H55ZM55 7V14H91V7V0H55V7Z" fill="#080808" mask="url(#path-1-outside-1_2_2)"/>
</svg>
